<?xml version="1.0" encoding="utf-8"?>
<!-- Generator: Adobe Illustrator 25.4.1, SVG Export Plug-In . SVG Version: 6.00 Build 0)  -->
<svg version="1.1" id="Layer_1" xmlns="http://www.w3.org/2000/svg" xmlns:xlink="http://www.w3.org/1999/xlink" x="0px" y="0px"
	 viewBox="0 0 512 512" style="enable-background:new 0 0 512 512;" xml:space="preserve">
<style type="text/css">
	.st0{fill:#FFFFFF;}
	.st1{fill:#FFFFFF;stroke:#000000;stroke-miterlimit:10;}
</style>
<g>
	<g>
		<path class="st0" d="M509.5,231.3c-8.7-23.2-35.4-42.8-79.4-58.3c-20.4-7.2-39.6-11.8-50.5-14.1c-10-21.8-25.6-40.6-45.5-54.5
			c-23-16.2-50-24.7-78.2-24.7c-28.2,0-55.2,8.5-78.2,24.7c-19.9,14-35.4,32.7-45.5,54.5c-10.8,2.3-30.1,6.9-50.5,14.1
			c-44,15.5-70.7,35.1-79.4,58.3c-3.3,8.8-4.9,22.7,6,38.4c19.5,28.1,69.7,46.3,97.8,54.7c2.4,0.7,4.9,1.4,7.3,2.1l-21.3,74.5
			l32.1,9.2l21.6-75.7c30.5,6.4,62.3,10.3,93.2,11.3v86.6h33.4v-86.6c30.9-1,62.8-4.9,93.2-11.3l21.6,75.7l32.1-9.2l-21.3-74.5
			c2.5-0.7,4.9-1.4,7.3-2.1c28.2-8.4,78.3-26.7,97.8-54.7C514.5,253.9,512.8,240.1,509.5,231.3z M256,113
			c39.5,0,75.7,23.1,92.7,58.3c-2.8,3-7.2,6.8-13.9,10.8c-13.1,7.7-37.4,17-78.8,17s-65.6-9.2-78.8-17c-6.6-3.9-11.1-7.8-13.9-10.8
			C180.3,136.1,216.5,113,256,113z M476.1,250.6c-11.6,16.7-48.9,32.5-79.9,41.8c-43.2,12.9-94.3,20.3-140.2,20.3
			c-99.7,0-200.2-33.4-220.1-62.1c-3.3-4.7-2.5-6.8-2.1-7.7c4.8-12.9,26.2-26.8,58.8-38.3c17.4-6.1,34.2-10.3,44.5-12.6
			c4.3,4.9,10.6,10.8,19.7,16.7c24.6,15.8,58,23.8,99.2,23.8s74.6-8,99.2-23.8c9.1-5.8,15.4-11.7,19.7-16.7
			c10.3,2.3,27.1,6.4,44.5,12.6c32.6,11.5,54,25.5,58.8,38.3C478.6,243.9,479.4,246,476.1,250.6z"/>
	</g>
</g>
<g>
	<g>
		
			<ellipse transform="matrix(9.853769e-02 -0.9951 0.9951 9.853769e-02 -130.4704 352.1685)" class="st1" cx="129.1" cy="248.1" rx="16.3" ry="16.3"/>
	</g>
</g>
<g>
	<g>
		<circle class="st1" cx="382.9" cy="248.1" r="16.3"/>
	</g>
</g>
<g>
	<g>
		<circle class="st1" cx="256" cy="274.1" r="16.3"/>
	</g>
</g>
</svg>
