<?xml version="1.0" encoding="utf-8"?>
<!-- Generator: Adobe Illustrator 25.4.1, SVG Export Plug-In . SVG Version: 6.00 Build 0)  -->
<svg version="1.1" id="Layer_1" xmlns="http://www.w3.org/2000/svg" xmlns:xlink="http://www.w3.org/1999/xlink" x="0px" y="0px"
	 viewBox="0 0 1920 1080" style="enable-background:new 0 0 1920 1080;" xml:space="preserve">
<path d="M16.79,519.08c10.2,2.89,12.89-6.49,12.89-6.49L48.5,489.5c0,0-1.34,2.16,4.03,2.89s10.08-2.89,10.08-2.89L70,469.29
	c0,0,1.34-3.61,4.03-6.49s40.99-21.65,40.99-21.65s4.03,19.48,0,25.98s-22.85,17.32-22.85,17.32s-24.54,22.37-25.37,26.7
	s-1.18,10.1,0,12.27s15.97,20.21,15.97,20.21s-0.67,5.05,7.39,0s26.65-24.54,26.65-24.54s3.58-8.66,7.62-2.16
	c4.03,6.49,6.72,6.49,10.75,6.49c4.03,0,14.11,0.72,14.11,0.72s2.02-2.89,5.38,5.77c3.36,8.66,0,59.17,0,59.17s0,7.22,4.7,8.66
	c4.7,1.44,6.72,2.16,11.42,0s5.38-8.66,12.77-8.66c7.39,0,16.13,5.05,16.13,5.05s4.03,7.22,3.36-2.89
	c-0.67-10.1,10.75-11.55,10.75-11.55s5.38,0,8.06-2.16c2.69-2.16,5.38-7.22-2.69-10.82s-31.58-10.82-31.58-10.82
	s-14.11-6.49-14.11-12.27s20.83-4.33,20.83-4.33s33.6-2.89,36.96-4.33s39.65-16.6,39.65-19.48s16.13-10.1,16.13-17.32
	c0-7.22,18.82-20.93,18.82-20.93s21.69-11.83,29.57-15.88c15.46-7.94,38.3,3.61,38.3,3.61l59.13,40.41c0,0,8.06,7.86,8.06,14.75
	c0,6.89-4.03,19.88,0,21.33c4.03,1.44,4.7,3.61,11.42-1.44s5.38-12.99,14.78-13.71c9.41-0.72,20.16,5.77,26.88,2.16
	s10.75-11.55,10.08-15.88s7.39-12.99,7.39-12.99l18.14-13.71c0,0,8.74-13.71,0-13.71s-22.85,8.66-22.85,8.66l-27.55,10.82
	c0,0-7.39,5.05-15.46,2.89c-8.06-2.16-24.86-9.38-24.86-9.38l-42.33-38.97c0,0-13.44-20.21-13.44-25.26S382.47,356,382.47,356
	s12.1-2.89,21.5-8.66c9.41-5.77,25.53-25.26,28.22-33.92c2.69-8.66,10.75-32.47,10.75-39.69s-4.03-51.23,0-55.56s10.08,0,10.08,0
	s13.44,16.6,26.21,24.54s46.74,33.19,54.28,28.86s0-12.99,0-12.99s12.92-21.65,9.56-25.98c-3.36-4.33-10.08-13.23-9.41-16.36
	c0.67-3.13-1.34-15.39,4.03-12.51s22.85,26.7,22.85,26.7l19.49,31.75v15.15c0,0,20.83,1.44,21.5-6.49
	c0.67-7.94,28.22,2.89,28.22,2.89s20.16,0.72,18.82-8.66c-1.34-9.38,2.02-10.82-7.39-12.27c-9.41-1.44-16.13,2.16-24.86-10.82
	c-8.74-12.99-15.46-31.03-15.46-31.03s-6.72-14.43-16.13-20.93c-9.41-6.49-36.29-7.94-36.29-7.94s-27.55,9.38-38.3,8.66
	c-10.75-0.72-32.25-25.26-32.25-25.26s-22.18-12.27-40.32-12.99c-18.14-0.72-38.3,8.66-43.68,18.76
	c-5.38,10.1-11.42,33.19-22.85,27.42c-11.42-5.77-37.63-33.19-51.07-35.36c-13.44-2.16-54.43-7.22-54.43-1.44
	c0,5.77-54.43,7.94-55.1,17.32c-0.67,9.38-45.69,41.85-45.69,41.85s-38.3,25.26-41.66,31.03c-3.36,5.77-21.5,38.97-21.5,41.85
	s-6.05,38.97-10.75,46.18c-4.7,7.22-20.16,20.21-23.52,25.26c-3.36,5.05-10.75,20.21-10.75,23.09s0.67,21.65,0.67,21.65
	l-18.14,55.56L19.6,506.09"/>
<g>
	<path d="M550.05,298.35h-2.74c-0.89,0-1.62,0.64-2.19,1.91c-0.57,1.27-1.16,4.72-1.77,10.34c-0.29,2.46-0.73,4.01-1.33,4.63
		c-0.6,0.63-1.81,0.94-3.62,0.94c-1.73,0-2.85-0.23-3.35-0.68c-0.5-0.45-0.75-1.35-0.75-2.69c0-0.78,0.02-1.56,0.06-2.33l0.73-15.1
		c0.08-1.77,0.36-2.93,0.84-3.47c0.48-0.54,1.69-0.81,3.62-0.81h44.29c1.29,0,2.07,0.17,2.36,0.52c0.28,0.35,0.5,1.6,0.67,3.76
		l1.03,13.35c0.08,1.04,0.12,2.1,0.12,3.18c0,1.3-0.15,2.29-0.45,2.98c-0.3,0.69-1.26,1.04-2.87,1.04c-2.05,0-3.37-0.22-3.95-0.65
		c-0.58-0.43-1.06-1.79-1.42-4.08c-0.64-3.76-1.35-6.84-2.11-9.24c-0.76-2.4-1.71-3.6-2.84-3.6h-1.81v83.22
		c0,2.38,0.97,4.02,2.9,4.93c0.8,0.39,1.34,0.85,1.6,1.39c0.26,0.54,0.39,1.67,0.39,3.4c0,2.2-0.18,3.49-0.54,3.86
		c-0.36,0.37-1.19,0.55-2.48,0.55h-26.61c-1.05,0-1.72-0.22-2.03-0.65c-0.3-0.43-0.45-1.66-0.45-3.69c0-2.42,0.63-3.89,1.9-4.41
		c1.22-0.52,2-1.03,2.32-1.52c0.33-0.5,0.49-1.35,0.49-2.56V298.35z"/>
	<path d="M616.5,315.46c6.16-6.14,11.57-9.2,16.24-9.2c3.46,0,6.48,1.38,9.05,4.15c2.57,2.77,3.86,6.42,3.86,10.95v61.83
		c0,1.6,0.42,2.74,1.27,3.44c1.21,0.99,1.81,2.42,1.81,4.28c0,2.07-0.14,3.39-0.42,3.95c-0.28,0.56-0.93,0.84-1.93,0.84h-15.39
		c-1.33,0-2.56-1.04-3.68-3.11c-1.13-2.07-1.69-4.54-1.69-7.39v-60.34c0-1.12-0.35-2.15-1.06-3.08c-0.7-0.93-1.54-1.39-2.5-1.39
		c-1.53,0-3.38,0.99-5.55,2.98v59.82c0,1.43,0.54,2.7,1.63,3.82c1.09,1.17,1.63,2.16,1.63,2.98c0,2.98-0.08,4.68-0.24,5.09
		c-0.16,0.41-0.95,0.62-2.35,0.62h-21.85c-0.93,0-1.55-0.2-1.87-0.62c-0.32-0.41-0.48-1.37-0.48-2.88c0-1.86,0.09-3.03,0.27-3.53
		c0.18-0.5,0.67-1.07,1.48-1.72c1.17-0.91,1.75-2.16,1.75-3.76v-79.52c0-2.89-0.87-4.51-2.6-4.86c-0.93-0.22-1.39-0.8-1.39-1.75
		v-4.6c0-0.91,0.5-1.36,1.51-1.36h20.28c1.49,0,2.23,0.78,2.23,2.33V315.46z"/>
	<path d="M676.01,350.14v26.51c0,3.5,0.63,6.24,1.9,8.23c1.27,1.99,2.89,2.98,4.86,2.98c3.06,0,5.5-1.39,7.33-4.18
		c1.83-2.79,2.81-6.6,2.93-11.44c0.04-2.59,0.27-4.15,0.69-4.67c0.42-0.52,1.88-0.78,4.38-0.78c2.17,0,3.55,0.24,4.13,0.71
		c0.58,0.48,0.87,1.66,0.87,3.56c0,6.65-2.01,12.57-6.04,17.76c-4.02,5.18-9.35,7.78-15.99,7.78c-7.6,0-14.06-3.7-19.37-11.12
		c-5.31-7.41-7.97-18.57-7.97-33.48s2.45-26.26,7.36-34.06c4.91-7.8,11.35-11.7,19.31-11.7c6.84,0,12.33,3.28,16.48,9.85
		c4.14,6.57,6.22,15.9,6.22,28v6.03H676.01z M684.15,342.03v-21.45c0-4.06-1.35-6.09-4.04-6.09c-2.74,0-4.1,2.03-4.1,6.09v21.45
		H684.15z"/>
</g>
<g>
	<path d="M606.5,574c-6.28,8.68-14.02,13.02-23.23,13.02c-14.37,0-26.13-9.06-35.27-27.2c-9.14-18.13-13.71-39.63-13.71-64.51
		c0-28.17,5.16-51,15.49-68.5c10.32-17.49,22.53-26.24,36.63-26.24c6.77,0,12.77,1.87,18,5.62c1.67,1.12,2.96,1.69,3.87,1.69
		c1.26,0,2.34-1.27,3.24-3.82c0.84-2.32,2.3-3.48,4.4-3.48h1.26l3.35,0.22c2.23,0.38,3.63,2.06,4.19,5.06l6.7,35.74
		c0.7,3.67,1.05,6.14,1.05,7.42c0,2.62-1.85,3.93-5.55,3.93c-3.63,0-5.97-0.56-7.01-1.69s-3.14-5.06-6.28-11.8
		c-4.19-9.14-7.87-15.49-11.04-19.05c-3.18-3.56-6.58-5.34-10.2-5.34c-9.56,0-14.34,8.17-14.34,24.5v120.7
		c0,8.84,2.62,13.26,7.85,13.26c5.72,0,8.58-4.41,8.58-13.24V501.6c0-3.81-1.22-6.28-3.66-7.41c-2.65-1.21-3.98-3.66-3.98-7.36
		c0-4,0.35-6.39,1.05-7.19c0.7-0.79,2.2-1.19,4.5-1.19h44.27c2.16,0,3.61,0.42,4.34,1.25c0.73,0.83,1.1,2.72,1.1,5.66
		c0,3.09-0.23,5.17-0.68,6.23c-0.45,1.06-1.55,1.92-3.3,2.6c-2.51,0.97-3.77,3.03-3.77,6.17v76.33c0,4.57-0.28,7.43-0.84,8.59
		c-0.56,1.16-2.02,1.74-4.4,1.74c-2.16,0-3.71-0.17-4.66-0.5c-0.94-0.34-2.25-1.37-3.92-3.09C615.85,578.56,611.18,575.42,606.5,574
		z"/>
	<path d="M703.51,476.1v-21.69c0-5.99-2.27-8.99-6.8-8.99c-6.21,0-9.31,4.53-9.31,13.6c0,5.1-0.54,8.73-1.62,10.9
		c-1.08,2.17-3.52,4.03-7.33,5.56c-3.8,1.54-7.87,2.3-12.19,2.3c-8.86,0-13.29-5.09-13.29-15.28c0-9.59,3.85-17.42,11.56-23.49
		c7.71-6.07,17.77-9.1,30.19-9.1c8.16,0,15.5,1.2,22.03,3.59c6.52,2.4,11.73,6.44,15.63,12.13c3.9,5.69,5.86,11.94,5.87,18.75V566.9
		c0.14,0.52,1.19,1.65,3.14,3.37c1.39,1.12,2.09,2.77,2.09,4.94c0,3-0.38,5.11-1.15,6.35c-0.77,1.24-2.63,2.38-5.6,3.43
		c-2.97,1.05-6.68,1.57-11.14,1.57c-5.44,0-9.98-1.07-13.6-3.2c-3.63-2.14-6.45-6.31-8.48-12.53c-6.07,6.74-10.99,11.05-14.76,12.92
		c-3.77,1.87-7.64,2.81-11.62,2.81c-8.85,0-15.7-3.72-20.55-11.17c-4.86-7.45-7.28-19.63-7.28-36.54
		c0.01-16.92,2.27-28.65,6.81-35.2c4.53-6.55,13.39-12.59,26.58-18.13C691.06,482.09,698,478.94,703.51,476.1z M703.51,490.71
		c-7.88,3.74-12.59,7.95-14.13,12.62c-1.54,4.68-2.3,15.2-2.3,31.59c0,12.04,0.63,19.66,1.88,22.83c1.26,3.18,3.42,4.77,6.49,4.77
		c5.37,0,8.06-4.79,8.06-14.36V490.71z"/>
	<path d="M751.97,412.83v-5.62c0-2.4,1.47-3.6,4.4-3.6h32.34c1.74,0,2.89,0.15,3.45,0.45c0.56,0.3,0.84,1.57,0.84,3.82v157
		c0,3.45,1.05,5.58,3.14,6.41c1.47,0.6,2.2,1.87,2.2,3.82v6.41c0,2.32-1.57,3.48-4.71,3.48h-38.41c-2.16,0-3.24-1.16-3.24-3.48
		v-6.41c0-2.62,1.08-4.57,3.24-5.84c1.39-0.75,2.27-1.44,2.62-2.08c0.35-0.64,0.52-1.86,0.52-3.65V424.29
		c0-2.62-0.94-4.38-2.83-5.28C753.15,417.73,751.97,415.68,751.97,412.83z"/>
	<path d="M807.75,412.83v-5.62c0-2.4,1.47-3.6,4.4-3.6h32.34c1.74,0,2.89,0.15,3.45,0.45c0.56,0.3,0.84,1.57,0.84,3.82v157
		c0,3.45,1.05,5.58,3.14,6.41c1.47,0.6,2.2,1.87,2.2,3.82v6.41c0,2.32-1.57,3.48-4.71,3.48h-38.41c-2.16,0-3.24-1.16-3.24-3.48
		v-6.41c0-2.62,1.08-4.57,3.24-5.84c1.39-0.75,2.27-1.44,2.62-2.08c0.35-0.64,0.52-1.86,0.52-3.65V424.29
		c0-2.62-0.94-4.38-2.83-5.28C808.93,417.73,807.75,415.68,807.75,412.83z"/>
	<path d="M910.09,429.91c13.12,0,24.07,6.31,32.86,18.94c8.79,12.63,13.19,31.37,13.19,56.25c0,26.82-4.47,47.11-13.4,60.85
		c-8.93,13.75-20.06,20.62-33.38,20.62c-9.21,0-17.2-3.15-23.96-9.44c-6.77-6.29-11.98-14.68-15.65-25.17
		c-3.66-10.49-5.49-24.84-5.49-43.04c0-26,4.2-45.66,12.61-59C885.27,436.58,896.35,429.91,910.09,429.91z M917.63,458.12
		c0-9.29-2.51-13.94-7.53-13.94c-5.44,0-8.16,5.69-8.16,17.08v93.39c0,11.31,2.48,16.97,7.43,16.97c5.51,0,8.27-5.66,8.27-16.97
		V458.12z"/>
	<path d="M1006.68,442.5c4.12-4.19,7.88-7.34,11.3-9.44c3.42-2.1,7.47-3.15,12.14-3.15c10.73,0,18.59,5.98,23.59,17.93
		c5,11.95,7.49,31.07,7.49,57.37c0,17.08-0.81,31.13-2.42,42.14c-1.61,11.01-5.21,20.04-10.78,27.08
		c-5.57,7.04-11.99,10.56-19.24,10.56c-8.72,0-16.08-5.17-22.08-15.51v25.06c0,2.55,1.32,4.31,3.98,5.28
		c2.58,0.97,3.87,2.81,3.87,5.51v4.05c0,1.57-0.17,2.53-0.52,2.87c-0.35,0.34-1.29,0.51-2.83,0.51h-40.29
		c-2.79,0-4.19-0.75-4.19-2.25v-4.16c0-2.77,1.19-4.91,3.56-6.41c1.19-0.75,1.78-1.95,1.78-3.6V450.92c0-2.77-0.91-4.87-2.72-6.29
		c-1.26-0.97-2.01-1.72-2.25-2.25c-0.25-0.52-0.37-1.61-0.37-3.26v-3.48c0-2.02,0.19-3.22,0.58-3.6c0.38-0.37,1.41-0.56,3.09-0.56
		h31.92c2.02,0,3.26,0.26,3.72,0.79c0.45,0.53,0.68,1.87,0.68,4.05V442.5z M1022.8,463.74c0-4.64-0.87-8.11-2.62-10.4
		c-1.74-2.28-3.66-3.43-5.76-3.43c-1.53,0-3.21,0.97-5.02,2.92c-1.82,1.95-2.72,4.16-2.72,6.63v94.4c0,2.02,0.98,4.16,2.93,6.41
		c1.95,2.25,4.22,3.37,6.8,3.37c4.26,0,6.38-3.56,6.38-10.68V463.74z"/>
	<path d="M1071.36,442.61v-7.42c0-2.47,1.39-3.71,4.19-3.71h33.38c2.37,0,3.56,1.24,3.56,3.71v129.24c0,1.8,0.1,2.96,0.31,3.48
		c0.21,0.52,0.82,1.01,1.85,1.46c2.47,1.05,3.7,3.37,3.7,6.97c0,4.12-0.17,6.59-0.52,7.42c-0.35,0.83-1.46,1.24-3.34,1.24h-40.51
		c-0.97-0.15-1.6-0.62-1.88-1.4c-0.28-0.79-0.42-2.87-0.42-6.24c0-4.05,0.91-6.41,2.72-7.08c2.23-0.82,3.35-2.32,3.35-4.5V453.73
		c0-4.34-1.5-6.97-4.5-7.87C1071.98,445.49,1071.36,444.41,1071.36,442.61z M1100.66,399.57c7.88,0,11.82,2.85,11.82,8.54
		c0,4.5-2.63,8.3-7.9,11.41c-5.27,3.11-11.25,4.66-17.95,4.66c-8.65,0-12.98-3.11-12.98-9.33c0-4.94,3.04-8.73,9.11-11.35
		C1088.83,400.88,1094.8,399.57,1100.66,399.57z"/>
	<path d="M1167.32,446.77c8.3-11.24,17.79-16.86,28.46-16.86c7.29,0,12.86,2.53,16.72,7.59c3.85,5.06,5.78,11.41,5.78,19.05v107.66
		c0,2.4,0.87,4.23,2.62,5.51c1.6,1.05,2.41,3.75,2.41,8.09c0,3.45-0.26,5.51-0.79,6.18c-0.52,0.67-1.62,1.01-3.3,1.01h-29.41
		c-4.19-3.82-6.28-8.8-6.28-14.95V463.17c0-5.84-2.23-8.77-6.7-8.77c-2.93,0-6.11,1.65-9.52,4.94v104.85c0,2.7,1.22,4.79,3.66,6.29
		c1.47,0.9,2.2,2.55,2.2,4.94v5.73c0,2.55-1.71,3.82-5.13,3.82h-37.15c-1.81,0-2.97-0.28-3.45-0.84c-0.49-0.56-0.73-1.97-0.73-4.21
		v-4.16c0-2.17,0.63-3.71,1.88-4.61c1.67-1.27,2.76-2.47,3.24-3.6c0.49-1.12,0.73-3.6,0.73-7.42V450.25c0-2.62-1.19-4.53-3.56-5.73
		c-1.33-0.67-1.99-1.87-1.99-3.6v-5.96c0-2.32,0.98-3.48,2.93-3.48h34.12c1.47,0,2.37,0.22,2.72,0.67c0.35,0.45,0.52,1.39,0.52,2.81
		V446.77z"/>
	<path d="M1291.75,431.48c2.3-2.47,3.45-4.42,3.45-5.84c0-2.02-1.4-3.89-4.19-5.62c-3.77-2.4-5.65-5.32-5.65-8.77
		c0-6.97,4.46-10.45,13.4-10.45c5.44,0,9.42,1.2,11.93,3.6c2.51,2.4,3.77,5.32,3.77,8.77c0,6.59-4.54,14.35-13.6,23.26
		c15.42,11.76,23.13,27.83,23.13,48.21c0,17.46-4.45,31.28-13.34,41.46c-8.9,10.18-19.17,15.28-30.82,15.29
		c-3.63,0-7.61-0.64-11.93-1.91c-2.37-0.6-4.15-0.9-5.34-0.9c-2.23,0-4.59,0.9-7.06,2.7c-2.48,1.8-3.71,3.75-3.71,5.84
		c0,3.67,3.8,5.51,11.41,5.51h28.57c10.19,0.01,18.52,2.26,25.01,6.75s9.73,11.72,9.73,21.68c0,21.13-16.74,31.69-50.23,31.69
		c-12.91,0-23.28-1.39-31.13-4.16c-7.85-2.77-11.77-7.16-11.77-13.15c0-3.22,0.8-5.75,2.41-7.58c1.6-1.84,4.43-3.84,8.48-6.01
		c0.56-0.3,1.39-0.75,2.51-1.35c-9.56-4.5-14.34-11.95-14.34-22.36c0-11.76,6.84-20.57,20.51-26.41
		c-12.91-10.94-19.36-25.77-19.36-44.5c0-16.71,4.38-30.47,13.13-41.3c8.76-10.83,19.38-16.24,31.87-16.24
		C1282.12,429.68,1286.52,430.28,1291.75,431.48z M1260.46,584.43c-4.54,1.95-6.8,4.34-6.8,7.19c0,2.85,1.62,4.98,4.87,6.41
		c3.24,1.42,9.96,2.14,20.14,2.14c17.58,0,26.37-3.3,26.37-9.89c0-3.75-2.97-5.62-8.89-5.62h-28.99
		C1264.85,584.66,1262.62,584.58,1260.46,584.43z M1286.41,459.69c0-9.74-2.51-14.61-7.53-14.61c-2.51,0-4.5,1.56-5.97,4.66
		c-1.46,3.11-2.2,6.43-2.2,9.95v55.85c0,3.07,0.71,5.64,2.15,7.7c1.43,2.06,3.26,3.09,5.49,3.09c2.37,0,4.31-1.1,5.81-3.32
		c1.5-2.21,2.25-5.04,2.25-8.48V459.69z"/>
	<path d="M1460.24,574c-6.28,8.68-14.02,13.02-23.23,13.02c-14.37,0-26.13-9.06-35.27-27.2c-9.14-18.13-13.71-39.63-13.71-64.51
		c0-28.17,5.16-51,15.49-68.5c10.32-17.49,22.53-26.24,36.63-26.24c6.77,0,12.77,1.87,18,5.62c1.67,1.12,2.97,1.69,3.87,1.69
		c1.26,0,2.34-1.27,3.24-3.82c0.84-2.32,2.3-3.48,4.4-3.48h1.26l3.35,0.22c2.23,0.38,3.63,2.06,4.19,5.06l6.7,35.74
		c0.7,3.67,1.05,6.14,1.05,7.42c0,2.62-1.85,3.93-5.55,3.93c-3.63,0-5.96-0.56-7.01-1.69c-1.05-1.12-3.14-5.06-6.28-11.8
		c-4.19-9.14-7.87-15.49-11.04-19.05c-3.18-3.56-6.58-5.34-10.2-5.34c-9.56,0-14.34,8.17-14.34,24.5v120.7
		c0,8.84,2.62,13.26,7.85,13.26c5.72,0,8.58-4.41,8.58-13.24V501.6c0-3.81-1.22-6.28-3.66-7.41c-2.65-1.21-3.98-3.66-3.98-7.36
		c0-4,0.35-6.39,1.05-7.19c0.7-0.79,2.2-1.19,4.5-1.19h44.27c2.16,0,3.61,0.42,4.34,1.25c0.73,0.83,1.1,2.72,1.1,5.66
		c0,3.09-0.23,5.17-0.68,6.23c-0.45,1.06-1.55,1.92-3.3,2.6c-2.51,0.97-3.77,3.03-3.77,6.17v76.33c0,4.57-0.28,7.43-0.84,8.59
		c-0.56,1.16-2.02,1.74-4.4,1.74c-2.16,0-3.71-0.17-4.66-0.5c-0.94-0.34-2.25-1.37-3.92-3.09
		C1469.58,578.56,1464.91,575.42,1460.24,574z"/>
	<path d="M1549.61,429.91c13.12,0,24.07,6.31,32.86,18.94c8.79,12.63,13.19,31.37,13.19,56.25c0,26.82-4.46,47.11-13.4,60.85
		c-8.93,13.75-20.06,20.62-33.38,20.62c-9.21,0-17.2-3.15-23.97-9.44c-6.77-6.29-11.98-14.68-15.65-25.17
		c-3.66-10.49-5.49-24.84-5.49-43.04c0-26,4.2-45.66,12.61-59C1524.79,436.58,1535.86,429.91,1549.61,429.91z M1557.14,458.12
		c0-9.29-2.51-13.94-7.53-13.94c-5.44,0-8.16,5.69-8.16,17.08v93.39c0,11.31,2.48,16.97,7.43,16.97c5.51,0,8.27-5.66,8.27-16.97
		V458.12z"/>
	<path d="M1652.27,429.91c13.12,0,24.07,6.31,32.86,18.94c8.79,12.63,13.19,31.37,13.19,56.25c0,26.82-4.47,47.11-13.4,60.85
		c-8.93,13.75-20.06,20.62-33.38,20.62c-9.21,0-17.2-3.15-23.97-9.44c-6.77-6.29-11.98-14.68-15.65-25.17
		c-3.66-10.49-5.49-24.84-5.49-43.04c0-26,4.2-45.66,12.61-59C1627.45,436.58,1638.52,429.91,1652.27,429.91z M1659.8,458.12
		c0-9.29-2.51-13.94-7.53-13.94c-5.44,0-8.16,5.69-8.16,17.08v93.39c0,11.31,2.48,16.97,7.43,16.97c5.51,0,8.27-5.66,8.27-16.97
		V458.12z"/>
	<path d="M1763.51,434.07l5.76,31.13c0.14,0.97,0.21,1.84,0.21,2.58c0,2.1-1.88,3.15-5.65,3.15c-2.51,0-4.34-0.34-5.49-1.01
		c-1.15-0.67-2.46-2.47-3.92-5.39c-1.67-3.45-4.22-7.53-7.64-12.25c-3.42-4.72-6.49-7.08-9.21-7.08c-1.05,0-1.97,0.53-2.77,1.57
		c-0.8,1.05-1.2,2.28-1.2,3.71c0,3.82,5.09,14.64,15.28,32.45c8.79,15.5,14.76,27.66,17.9,36.49c3.14,8.83,4.71,18.79,4.71,29.87
		c0,11.75-2.37,20.91-7.12,27.46c-4.75,6.55-10.33,9.82-16.74,9.82c-4.05,0-8.3-1.57-12.77-4.72c-2.44-1.72-4.08-2.59-4.92-2.59
		c-0.98,0-1.54,0.86-1.67,2.59c-0.28,2.02-0.7,3.32-1.26,3.88c-0.56,0.56-2.37,0.84-5.44,0.84c-2.37,0-3.91-0.38-4.6-1.12
		c-0.7-0.75-1.19-2.06-1.47-3.93l-5.23-31.35c-0.21-1.5-0.31-2.43-0.31-2.81c0-2.1,2.34-3.15,7.01-3.15c2.44,0,4.13,0.34,5.08,1.01
		c0.94,0.67,2.15,2.62,3.61,5.84c5.44,12.21,10.6,18.32,15.49,18.32c3.14,0,4.71-2.02,4.71-6.06c0-3.59-1.17-8.05-3.51-13.36
		c-2.34-5.31-6.89-14.04-13.66-26.16c-7.12-12.88-12.26-23.66-15.44-32.34c-3.18-8.68-4.76-17.4-4.76-26.16
		c0-11.9,2.37-20.77,7.12-26.61c4.74-5.84,10.5-8.76,17.27-8.76c3.56,0,7.6,1.31,12.14,3.93c2.3,1.35,3.87,2.02,4.71,2.02
		c1.12,0,1.78-0.79,1.99-2.36c0.28-1.65,0.84-2.66,1.67-3.03c0.84-0.37,2.62-0.56,5.34-0.56c1.74,0,2.88,0.21,3.4,0.62
		C1762.62,430.94,1763.09,432.12,1763.51,434.07z"/>
	<path d="M1819.18,505.99v45.96c0,6.07,1.1,10.83,3.3,14.27c2.2,3.45,5.01,5.17,8.42,5.17c5.3,0,9.54-2.42,12.72-7.25
		c3.17-4.83,4.87-11.44,5.08-19.84c0.07-4.5,0.47-7.19,1.2-8.09c0.73-0.9,3.26-1.35,7.59-1.35c3.77,0,6.16,0.41,7.17,1.24
		c1.01,0.83,1.52,2.89,1.52,6.18c0,11.54-3.49,21.8-10.46,30.79c-6.98,8.99-16.22,13.49-27.73,13.49
		c-13.18,0-24.38-6.42-33.59-19.27c-9.21-12.85-13.81-32.2-13.81-58.04c0-25.85,4.25-45.53,12.77-59.06
		c8.51-13.52,19.67-20.28,33.49-20.28c11.86,0,21.38,5.69,28.57,17.08c7.18,11.39,10.78,27.57,10.78,48.55v10.45H1819.18z
		 M1833.31,491.94v-37.2c0-7.04-2.34-10.56-7.01-10.56c-4.74,0-7.12,3.52-7.12,10.56v37.2H1833.31z"/>
</g>
</svg>
