<svg id="Layer_1" data-name="Layer 1" xmlns="http://www.w3.org/2000/svg" viewBox="0 0 1849.41 460.31"><path d="M16.79,519.08c10.2,2.89,12.89-6.49,12.89-6.49L48.5,489.5s-1.34,2.16,4,2.89,10.08-2.89,10.08-2.89L70,469.29a21.93,21.93,0,0,1,4-6.49c2.69-2.88,41-21.65,41-21.65s4,19.48,0,26-22.85,17.32-22.85,17.32-24.54,22.37-25.37,26.7-1.18,10.1,0,12.27,16,20.21,16,20.21-.67,5,7.39,0,26.65-24.54,26.65-24.54,3.58-8.66,7.62-2.16,6.72,6.49,10.75,6.49,14.11.72,14.11.72,2-2.89,5.38,5.77,0,59.17,0,59.17,0,7.22,4.7,8.66,6.72,2.16,11.42,0,5.38-8.66,12.77-8.66,16.13,5,16.13,5,4,7.22,3.36-2.89,10.75-11.55,10.75-11.55,5.38,0,8.06-2.16,5.38-7.22-2.69-10.82-31.58-10.82-31.58-10.82-14.11-6.49-14.11-12.27,20.83-4.33,20.83-4.33,33.6-2.89,37-4.33,39.65-16.6,39.65-19.48,16.13-10.1,16.13-17.32,18.82-20.93,18.82-20.93,21.69-11.83,29.57-15.88c15.46-7.94,38.3,3.61,38.3,3.61l59.13,40.41s8.06,7.86,8.06,14.75-4,19.88,0,21.33,4.7,3.61,11.42-1.44,5.38-13,14.78-13.71,20.16,5.77,26.88,2.16,10.75-11.55,10.08-15.88,7.39-13,7.39-13l18.14-13.71s8.74-13.71,0-13.71-22.85,8.66-22.85,8.66l-27.55,10.82s-7.39,5.05-15.46,2.89-24.86-9.38-24.86-9.38l-42.33-39S383.13,426,383.13,420.93s-.66-64.93-.66-64.93,12.1-2.89,21.5-8.66,25.53-25.26,28.22-33.92,10.75-32.47,10.75-39.69-4-51.23,0-55.56,10.08,0,10.08,0,13.44,16.6,26.21,24.54S526,275.9,533.51,271.57s0-13,0-13,12.92-21.65,9.56-26-10.08-13.23-9.41-16.36-1.34-15.39,4-12.51,22.85,26.7,22.85,26.7L580,262.18v15.15s20.83,1.44,21.5-6.49,28.22,2.89,28.22,2.89,20.16.72,18.82-8.66,2-10.82-7.39-12.27S625.05,255,616.32,242s-15.46-31-15.46-31-6.72-14.43-16.13-20.93-36.29-7.94-36.29-7.94-27.55,9.38-38.3,8.66-32.25-25.26-32.25-25.26-22.18-12.27-40.32-13-38.3,8.66-43.68,18.76S382.47,204.44,371,198.67,333.41,165.48,320,163.31s-54.43-7.22-54.43-1.44-54.43,7.94-55.1,17.32S164.75,221,164.75,221s-38.3,25.26-41.66,31-21.5,39-21.5,41.85-6,39-10.75,46.18-20.16,20.21-23.52,25.26-10.75,20.21-10.75,23.09.67,21.65.67,21.65L39.1,465.66,19.6,506.09" transform="translate(-16.79 -152.45)"/><path d="M550.05,298.35h-2.74c-.89,0-1.62.64-2.19,1.91S544,305,543.35,310.6c-.29,2.46-.73,4-1.33,4.63s-1.81.94-3.62.94-2.85-.23-3.35-.68a3.62,3.62,0,0,1-.75-2.69c0-.78,0-1.56.06-2.33l.73-15.1c.08-1.77.36-2.93.84-3.47s1.69-.81,3.62-.81h44.29c1.29,0,2.07.17,2.36.52s.5,1.6.67,3.76l1,13.35q.12,1.56.12,3.18a7.73,7.73,0,0,1-.45,3c-.3.69-1.26,1-2.87,1-2.05,0-3.37-.22-4-.65s-1.06-1.79-1.42-4.08a70.66,70.66,0,0,0-2.11-9.24q-1.14-3.6-2.84-3.6h-1.81v83.22a5,5,0,0,0,2.9,4.93,3.26,3.26,0,0,1,1.6,1.39,9.36,9.36,0,0,1,.39,3.4c0,2.2-.18,3.49-.54,3.86a3.71,3.71,0,0,1-2.48.55H547.83c-1.05,0-1.72-.22-2-.65s-.45-1.66-.45-3.69q0-3.63,1.9-4.41a5.34,5.34,0,0,0,2.32-1.52,4.88,4.88,0,0,0,.49-2.56V298.35Z" transform="translate(-16.79 -152.45)"/><path d="M616.5,315.46q9.24-9.21,16.24-9.2a12,12,0,0,1,9,4.15q3.86,4.15,3.86,10.95v61.83a4.2,4.2,0,0,0,1.27,3.44,5.21,5.21,0,0,1,1.81,4.28,11.17,11.17,0,0,1-.42,3.95c-.28.56-.93.84-1.93.84H631q-2,0-3.68-3.11a15.22,15.22,0,0,1-1.69-7.39V324.86a5,5,0,0,0-1.06-3.08,3.07,3.07,0,0,0-2.5-1.39q-2.29,0-5.55,3v59.82a5.32,5.32,0,0,0,1.63,3.82,4.87,4.87,0,0,1,1.63,3,26.51,26.51,0,0,1-.24,5.09c-.16.41-.95.62-2.35.62H595.33a2.24,2.24,0,0,1-1.87-.62,5.43,5.43,0,0,1-.48-2.88,13.62,13.62,0,0,1,.27-3.53,4.46,4.46,0,0,1,1.48-1.72,4.49,4.49,0,0,0,1.75-3.76V303.67q0-4.34-2.6-4.86a1.63,1.63,0,0,1-1.39-1.75v-4.6c0-.91.5-1.36,1.51-1.36h20.28c1.49,0,2.23.78,2.23,2.33v22Z" transform="translate(-16.79 -152.45)"/><path d="M676,350.14v26.51q0,5.25,1.9,8.23a5.62,5.62,0,0,0,4.86,3,8.39,8.39,0,0,0,7.33-4.18q2.74-4.19,2.93-11.44c0-2.59.27-4.15.69-4.67s1.88-.78,4.38-.78c2.17,0,3.55.24,4.13.71s.87,1.66.87,3.56a28.17,28.17,0,0,1-6,17.76,19.25,19.25,0,0,1-16,7.78q-11.4,0-19.37-11.12t-8-33.48q0-22.37,7.36-34.06t19.31-11.7q10.26,0,16.48,9.85t6.22,28v6H676Zm8.14-8.11V320.58q0-6.09-4-6.09c-2.74,0-4.1,2-4.1,6.09V342Z" transform="translate(-16.79 -152.45)"/><path d="M606.5,574q-9.42,13-23.23,13-21.56,0-35.27-27.2t-13.71-64.51q0-42.26,15.49-68.5t36.63-26.24a30.1,30.1,0,0,1,18,5.62,8,8,0,0,0,3.87,1.69q1.89,0,3.24-3.82c.84-2.32,2.3-3.48,4.4-3.48h1.26l3.35.22c2.23.38,3.63,2.06,4.19,5.06l6.7,35.74a49.15,49.15,0,0,1,1.05,7.42q0,3.93-5.55,3.93t-7-1.69q-1.56-1.69-6.28-11.8-6.28-13.71-11-19t-10.2-5.34q-14.34,0-14.34,24.5v120.7q0,13.26,7.85,13.26,8.58,0,8.58-13.24V501.6q0-5.72-3.66-7.41-4-1.81-4-7.36c0-4,.35-6.39,1-7.19s2.2-1.19,4.5-1.19h44.27c2.16,0,3.61.42,4.34,1.25s1.1,2.72,1.1,5.66-.23,5.17-.68,6.23-1.55,1.92-3.3,2.6q-3.76,1.46-3.77,6.17v76.33q0,6.85-.84,8.59c-.56,1.16-2,1.74-4.4,1.74a15.55,15.55,0,0,1-4.66-.5,12.67,12.67,0,0,1-3.92-3.09Q613.51,576.13,606.5,574Z" transform="translate(-16.79 -152.45)"/><path d="M703.51,476.1V454.41q0-9-6.8-9-9.32,0-9.31,13.6,0,7.65-1.62,10.9t-7.33,5.56a32.16,32.16,0,0,1-12.19,2.3Q653,477.78,653,462.5q0-14.38,11.56-23.49t30.19-9.1a63.75,63.75,0,0,1,22,3.59,31.81,31.81,0,0,1,15.63,12.13,32.55,32.55,0,0,1,5.87,18.75V566.9c.14.52,1.19,1.65,3.14,3.37a6,6,0,0,1,2.09,4.94c0,3-.38,5.11-1.15,6.35s-2.63,2.38-5.6,3.43a33.79,33.79,0,0,1-11.14,1.57q-8.16,0-13.6-3.2t-8.48-12.53q-9.1,10.11-14.76,12.92a25.86,25.86,0,0,1-11.62,2.81q-13.27,0-20.55-11.17t-7.28-36.54q0-25.38,6.81-35.2t26.58-18.13Q695.24,480.38,703.51,476.1Zm0,14.61q-11.82,5.61-14.13,12.62t-2.3,31.59q0,18.06,1.88,22.83t6.49,4.77q8.06,0,8.06-14.36Z" transform="translate(-16.79 -152.45)"/><path d="M752,412.83v-5.62q0-3.6,4.4-3.6h32.34a8.53,8.53,0,0,1,3.45.45c.56.3.84,1.57.84,3.82v157c0,3.45,1,5.58,3.14,6.41q2.21.9,2.2,3.82v6.41q0,3.48-4.71,3.48H755.22q-3.24,0-3.24-3.48v-6.41a6.32,6.32,0,0,1,3.24-5.84,6.51,6.51,0,0,0,2.62-2.08,8.57,8.57,0,0,0,.52-3.65V424.29q0-3.93-2.83-5.28A6.49,6.49,0,0,1,752,412.83Z" transform="translate(-16.79 -152.45)"/><path d="M807.75,412.83v-5.62q0-3.6,4.4-3.6h32.34a8.53,8.53,0,0,1,3.45.45c.56.3.84,1.57.84,3.82v157c0,3.45,1.05,5.58,3.14,6.41q2.21.9,2.2,3.82v6.41q0,3.48-4.71,3.48H811q-3.24,0-3.24-3.48v-6.41a6.32,6.32,0,0,1,3.24-5.84,6.51,6.51,0,0,0,2.62-2.08,8.57,8.57,0,0,0,.52-3.65V424.29q0-3.93-2.83-5.28A6.49,6.49,0,0,1,807.75,412.83Z" transform="translate(-16.79 -152.45)"/><path d="M910.09,429.91q19.68,0,32.86,18.94t13.19,56.25q0,40.23-13.4,60.85t-33.38,20.62a34,34,0,0,1-24-9.44Q875.25,567.7,869.75,552t-5.49-43q0-39,12.61-59T910.09,429.91Zm7.54,28.21q0-13.94-7.53-13.94-8.16,0-8.16,17.08v93.39q0,17,7.43,17,8.26,0,8.27-17V458.12Z" transform="translate(-16.79 -152.45)"/><path d="M1006.68,442.5a62.21,62.21,0,0,1,11.3-9.44,22.75,22.75,0,0,1,12.14-3.15q16.1,0,23.59,17.93t7.49,57.37q0,25.62-2.42,42.14T1048,574.43Q1039.65,585,1028.76,585q-13.08,0-22.08-15.51v25.06c0,2.55,1.32,4.31,4,5.28a5.45,5.45,0,0,1,3.87,5.51v4c0,1.57-.17,2.53-.52,2.87s-1.29.51-2.83.51H970.89q-4.18,0-4.19-2.25v-4.16a7.17,7.17,0,0,1,3.56-6.41,3.93,3.93,0,0,0,1.78-3.6V450.92a7.52,7.52,0,0,0-2.72-6.29,7.83,7.83,0,0,1-2.25-2.25,9,9,0,0,1-.37-3.26v-3.48c0-2,.19-3.22.58-3.6s1.41-.56,3.09-.56h31.92c2,0,3.26.26,3.72.79s.68,1.87.68,4.05v6.18Zm16.12,21.24q0-7-2.62-10.4c-1.74-2.28-3.66-3.43-5.76-3.43-1.53,0-3.21,1-5,2.92a9.45,9.45,0,0,0-2.72,6.63v94.4q0,3,2.93,6.41a8.78,8.78,0,0,0,6.8,3.37q6.39,0,6.38-10.68V463.74Z" transform="translate(-16.79 -152.45)"/><path d="M1071.36,442.61v-7.42c0-2.47,1.39-3.71,4.19-3.71h33.38q3.55,0,3.56,3.71V564.43a11.76,11.76,0,0,0,.31,3.48,3.28,3.28,0,0,0,1.85,1.46q3.7,1.57,3.7,7,0,6.18-.52,7.42c-.35.83-1.46,1.24-3.34,1.24H1074a2.16,2.16,0,0,1-1.88-1.4,26.2,26.2,0,0,1-.42-6.24q0-6.08,2.72-7.08a4.52,4.52,0,0,0,3.35-4.5v-112q0-6.51-4.5-7.87C1072,445.49,1071.36,444.41,1071.36,442.61Zm29.3-43q11.82,0,11.82,8.54,0,6.75-7.9,11.41a34.63,34.63,0,0,1-17.95,4.66q-13,0-13-9.33,0-7.41,9.11-11.35A45,45,0,0,1,1100.66,399.57Z" transform="translate(-16.79 -152.45)"/><path d="M1167.32,446.77q12.45-16.86,28.46-16.86,10.93,0,16.72,7.59t5.78,19.05V564.21a6.4,6.4,0,0,0,2.62,5.51c1.6,1,2.41,3.75,2.41,8.09q0,5.18-.79,6.18c-.52.67-1.62,1-3.3,1h-29.41q-6.29-5.73-6.28-15V463.17q0-8.76-6.7-8.77-4.39,0-9.52,4.94V564.19a7,7,0,0,0,3.66,6.29q2.21,1.35,2.2,4.94v5.73q0,3.83-5.13,3.82h-37.15c-1.81,0-3-.28-3.45-.84s-.73-2-.73-4.21v-4.16q0-3.25,1.88-4.61a9.85,9.85,0,0,0,3.24-3.6c.49-1.12.73-3.6.73-7.42V450.25a6,6,0,0,0-3.56-5.73,3.67,3.67,0,0,1-2-3.6v-6q0-3.48,2.93-3.48h34.12c1.47,0,2.37.22,2.72.67a5.05,5.05,0,0,1,.52,2.81v11.81Z" transform="translate(-16.79 -152.45)"/><path d="M1291.75,431.48q3.45-3.71,3.45-5.84,0-3-4.19-5.62-5.65-3.6-5.65-8.77,0-10.46,13.4-10.45,8.16,0,11.93,3.6a11.67,11.67,0,0,1,3.77,8.77q0,9.88-13.6,23.26Q1324,454.07,1324,484.64q0,26.19-13.34,41.46t-30.82,15.29a42.59,42.59,0,0,1-11.93-1.91,24,24,0,0,0-5.34-.9,12.15,12.15,0,0,0-7.06,2.7c-2.48,1.8-3.71,3.75-3.71,5.84q0,5.5,11.41,5.51h28.57q15.29,0,25,6.75t9.73,21.68q0,31.7-50.23,31.69-19.37,0-31.13-4.16t-11.77-13.15q0-4.83,2.41-7.58t8.48-6l2.51-1.35q-14.34-6.75-14.34-22.36,0-17.64,20.51-26.41-19.37-16.41-19.36-44.5,0-25.07,13.13-41.3t31.87-16.24A60.15,60.15,0,0,1,1291.75,431.48Zm-31.29,152.95q-6.81,2.93-6.8,7.19c0,2.85,1.62,5,4.87,6.41s10,2.14,20.14,2.14q26.37,0,26.37-9.89,0-5.62-8.89-5.62h-29Q1263.69,584.66,1260.46,584.43Zm26-124.74q0-14.61-7.53-14.61c-2.51,0-4.5,1.56-6,4.66a23.14,23.14,0,0,0-2.2,9.95v55.85a13.12,13.12,0,0,0,2.15,7.7,6.45,6.45,0,0,0,5.49,3.09,6.76,6.76,0,0,0,5.81-3.32,14.8,14.8,0,0,0,2.25-8.48V459.69Z" transform="translate(-16.79 -152.45)"/><path d="M1460.24,574q-9.42,13-23.23,13-21.55,0-35.27-27.2T1388,495.31q0-42.26,15.49-68.5t36.63-26.24a30.1,30.1,0,0,1,18,5.62,8.07,8.07,0,0,0,3.87,1.69q1.89,0,3.24-3.82c.84-2.32,2.3-3.48,4.4-3.48h1.26l3.35.22c2.23.38,3.63,2.06,4.19,5.06l6.7,35.74a49.15,49.15,0,0,1,1,7.42q0,3.93-5.55,3.93c-3.63,0-6-.56-7-1.69s-3.14-5.06-6.28-11.8q-6.28-13.71-11-19t-10.2-5.34q-14.34,0-14.34,24.5v120.7q0,13.26,7.85,13.26,8.58,0,8.58-13.24V501.6q0-5.72-3.66-7.41-4-1.81-4-7.36c0-4,.35-6.39,1.05-7.19s2.2-1.19,4.5-1.19h44.27c2.16,0,3.61.42,4.34,1.25s1.1,2.72,1.1,5.66-.23,5.17-.68,6.23-1.55,1.92-3.3,2.6q-3.77,1.46-3.77,6.17v76.33q0,6.85-.84,8.59c-.56,1.16-2,1.74-4.4,1.74a15.55,15.55,0,0,1-4.66-.5,12.67,12.67,0,0,1-3.92-3.09Q1467.24,576.13,1460.24,574Z" transform="translate(-16.79 -152.45)"/><path d="M1549.61,429.91q19.68,0,32.86,18.94t13.19,56.25q0,40.23-13.4,60.85t-33.38,20.62a34.06,34.06,0,0,1-24-9.44q-10.15-9.43-15.65-25.17t-5.49-43q0-39,12.61-59T1549.61,429.91Zm7.53,28.21q0-13.94-7.53-13.94-8.16,0-8.16,17.08v93.39q0,17,7.43,17,8.26,0,8.27-17V458.12Z" transform="translate(-16.79 -152.45)"/><path d="M1652.27,429.91q19.68,0,32.86,18.94t13.19,56.25q0,40.23-13.4,60.85t-33.38,20.62a34.06,34.06,0,0,1-24-9.44q-10.15-9.43-15.65-25.17t-5.49-43q0-39,12.61-59T1652.27,429.91Zm7.53,28.21q0-13.94-7.53-13.94-8.16,0-8.16,17.08v93.39q0,17,7.43,17,8.26,0,8.27-17V458.12Z" transform="translate(-16.79 -152.45)"/><path d="M1763.51,434.07l5.76,31.13a18.41,18.41,0,0,1,.21,2.58q0,3.15-5.65,3.15a11.35,11.35,0,0,1-5.49-1q-1.72-1-3.92-5.39a84.71,84.71,0,0,0-7.64-12.25q-5.13-7.08-9.21-7.08a3.47,3.47,0,0,0-2.77,1.57,5.93,5.93,0,0,0-1.2,3.71q0,5.73,15.28,32.45,13.18,23.25,17.9,36.49a88.78,88.78,0,0,1,4.71,29.87q0,17.63-7.12,27.46t-16.74,9.82q-6.08,0-12.77-4.72c-2.44-1.72-4.08-2.59-4.92-2.59s-1.54.86-1.67,2.59c-.28,2-.7,3.32-1.26,3.88s-2.37.84-5.44.84c-2.37,0-3.91-.38-4.6-1.12a7.43,7.43,0,0,1-1.47-3.93l-5.23-31.35a28.21,28.21,0,0,1-.31-2.81q0-3.15,7-3.15,3.66,0,5.08,1c.94.67,2.15,2.62,3.61,5.84q8.16,18.32,15.49,18.32,4.71,0,4.71-6.06,0-5.39-3.51-13.36t-13.66-26.16q-10.68-19.32-15.44-32.34a75.56,75.56,0,0,1-4.76-26.16q0-17.85,7.12-26.61t17.27-8.76q5.34,0,12.14,3.93,3.45,2,4.71,2c1.12,0,1.78-.79,2-2.36s.84-2.66,1.67-3a16,16,0,0,1,5.34-.56,6.15,6.15,0,0,1,3.4.62C1762.62,430.94,1763.09,432.12,1763.51,434.07Z" transform="translate(-16.79 -152.45)"/><path d="M1819.18,506v46q0,9.1,3.3,14.27t8.42,5.17q7.95,0,12.72-7.25t5.08-19.84c.07-4.5.47-7.19,1.2-8.09s3.26-1.35,7.59-1.35q5.65,0,7.17,1.24t1.52,6.18a48.9,48.9,0,0,1-10.46,30.79q-10.47,13.48-27.73,13.49-19.77,0-33.59-19.27t-13.81-58q0-38.78,12.77-59.06t33.49-20.28q17.79,0,28.57,17.08t10.78,48.55V506Zm14.13-14.05v-37.2q0-10.56-7-10.56t-7.12,10.56v37.2Z" transform="translate(-16.79 -152.45)"/></svg>