<svg id="Layer_1" data-name="Layer 1" xmlns="http://www.w3.org/2000/svg" viewBox="0 0 1151.1 437.7"><defs><style>.cls-1{fill:#fff;}</style></defs><path class="cls-1" d="M379.6,297a123.4,123.4,0,0,0,4.4-33c0-66.3-51.7-120-115.5-120S153,197.7,153,264a121.6,121.6,0,0,0,4.7,33.8,79.5,79.5,0,0,0,46.9,151.3l-38.7-39a6.5,6.5,0,1,1,9.2-9.2l43.4,43.8a79.7,79.7,0,0,0,45.4-51.1l-.4-97.6A11.5,11.5,0,0,1,275,284.5h0A11.5,11.5,0,0,1,286.5,296l.4,106.8a81.3,81.3,0,0,0,15.8,25.3l70.2-70.2a6.5,6.5,0,0,1,9.2,9.2l-69.7,69.7A68.8,68.8,0,0,0,354,451c40.3,0,73-35.6,73-79.5C427,337.4,407.3,308.3,379.6,297Z" transform="translate(-108 -144)"/><path class="cls-1" d="M302.7,428.1,287,443.8v-41a84.3,84.3,0,0,1-5.1-19.6,117.3,117.3,0,0,1-13.3.8H266a74.3,74.3,0,0,1-2.1,9.6l.3,97.3-45.7-46.2a72.6,72.6,0,0,1-13.9,4.4l59.7,60.3.2,58.6A11.5,11.5,0,0,0,276,579.5h0A11.5,11.5,0,0,0,287.5,568l-.4-105.9,25.3-25.3A72.7,72.7,0,0,1,302.7,428.1Z" transform="translate(-108 -144)"/><path class="cls-1" d="M498.2,463.5V219.8H407.6V170.2H650.3v49.6H559.8V463.5Z" transform="translate(-108 -144)"/><path class="cls-1" d="M722.1,463.5H663.6V251H718v30.2c9.3-14.2,17.6-23.6,25.1-28.2a47.7,47.7,0,0,1,25.3-6.8,77.1,77.1,0,0,1,38.5,10.6l-18.1,49c-9.9-6.1-19-9.2-27.5-9.2s-15.1,2.2-20.8,6.5-10.2,12.2-13.5,23.5-4.9,35.1-4.9,71.3Z" transform="translate(-108 -144)"/><path class="cls-1" d="M960.3,395.9l58.3,9.4c-7.5,20.5-19.4,36.1-35.5,46.9s-36.5,16.1-60.8,16.1q-57.6,0-85.4-36.2c-14.6-19.4-21.8-43.8-21.8-73.3,0-35.2,9.5-62.7,28.7-82.7s43.4-29.9,72.7-29.9c32.9,0,58.9,10.5,77.9,31.3s28.1,52.9,27.3,95.9H875.1q.6,25.1,14.1,39c9,9.2,20.3,13.9,33.8,13.9q13.7,0,23.1-7.2C952.3,414.3,957.1,406.5,960.3,395.9Zm3.3-56.9c-.4-16.2-4.8-28.6-13.1-37.1a41.5,41.5,0,0,0-30.4-12.7c-12.8,0-23.4,4.5-31.7,13.4S876,323.7,876.1,339Z" transform="translate(-108 -144)"/><path class="cls-1" d="M1197.5,395.9l58.4,9.4c-7.5,20.5-19.4,36.1-35.5,46.9s-36.5,16.1-60.8,16.1q-57.6,0-85.4-36.2-21.9-29.1-21.9-73.3c0-35.2,9.6-62.7,28.8-82.7s43.4-29.9,72.7-29.9c32.9,0,58.9,10.5,77.9,31.3s28.1,52.9,27.3,95.9H1112.3c.5,16.7,5.2,29.7,14.2,39s20.3,13.9,33.8,13.9q13.7,0,23.1-7.2C1189.6,414.3,1194.3,406.5,1197.5,395.9Zm3.4-56.9c-.4-16.2-4.8-28.6-13.1-37.1a41.5,41.5,0,0,0-30.5-12.7c-12.7,0-23.3,4.5-31.6,13.4s-12.5,21.1-12.3,36.4Z" transform="translate(-108 -144)"/><path class="cls-1" d="M504.7,556.5V471h27.7c10.5,0,17.4.4,20.6,1.3a21.8,21.8,0,0,1,12.3,8.3c3.3,4.3,4.9,9.9,4.9,16.7s-.9,9.7-2.8,13.2a24.4,24.4,0,0,1-7.3,8.5,24,24,0,0,1-9,4c-4.1.9-10,1.3-17.9,1.3H522v32.2Zm17.3-71v24.2h9.4c6.8,0,11.4-.4,13.7-1.3a12,12,0,0,0,4.6-18.6,12.1,12.1,0,0,0-7-3.8c-2-.4-6.2-.5-12.4-.5Z" transform="translate(-108 -144)"/><path class="cls-1" d="M600.6,471v31.4c5.3-6.2,11.6-9.2,19-9.2a23.8,23.8,0,0,1,10.2,2.1,17.2,17.2,0,0,1,6.9,5.3,19,19,0,0,1,3.1,7.3,60.2,60.2,0,0,1,.9,12.3v36.3H624.3V523.8c0-6.5-.3-10.6-1-12.4a8.4,8.4,0,0,0-3.3-4.2,10.5,10.5,0,0,0-5.9-1.5,14,14,0,0,0-7.3,2,11.5,11.5,0,0,0-4.7,6c-1,2.6-1.5,6.6-1.5,11.8v31H584.2V471Z" transform="translate(-108 -144)"/><path class="cls-1" d="M653.5,524.7a33.1,33.1,0,0,1,4-15.8,28,28,0,0,1,11.4-11.7,34.1,34.1,0,0,1,16.5-4c9.4,0,17.1,3,23.1,9.1s9,13.8,9,23.1-3.1,17.1-9.1,23.3-13.7,9.2-22.9,9.2a36.7,36.7,0,0,1-16.2-3.8,26.9,26.9,0,0,1-11.8-11.3C654.8,537.8,653.5,531.8,653.5,524.7Zm16.8.8c0,6.2,1.5,10.9,4.4,14.2a14.1,14.1,0,0,0,10.8,4.9,13.9,13.9,0,0,0,10.7-4.9c2.9-3.3,4.4-8,4.4-14.3s-1.5-10.7-4.4-14a13.9,13.9,0,0,0-10.7-4.9,14.1,14.1,0,0,0-10.8,4.9C671.8,514.7,670.3,519.4,670.3,525.5Z" transform="translate(-108 -144)"/><path class="cls-1" d="M758.7,494.6v13H747.5v25a64.7,64.7,0,0,0,.3,8.8,3.2,3.2,0,0,0,1.5,2.1,4.2,4.2,0,0,0,2.8.8,22.4,22.4,0,0,0,6.6-1.5l1.4,12.7a33.8,33.8,0,0,1-13,2.4,20.4,20.4,0,0,1-8-1.5,10.6,10.6,0,0,1-5.2-3.8,15,15,0,0,1-2.3-6.4c-.4-1.9-.5-5.8-.5-11.6v-27h-7.6v-13h7.6V482.2l16.4-9.5v21.9Z" transform="translate(-108 -144)"/><path class="cls-1" d="M766.3,524.7a33.1,33.1,0,0,1,4-15.8,28,28,0,0,1,11.4-11.7,34.1,34.1,0,0,1,16.5-4c9.4,0,17.1,3,23.1,9.1s9,13.8,9,23.1-3.1,17.1-9.1,23.3-13.7,9.2-22.9,9.2a36.7,36.7,0,0,1-16.2-3.8,26.9,26.9,0,0,1-11.8-11.3C767.6,537.8,766.3,531.8,766.3,524.7Zm16.8.8c0,6.2,1.5,10.9,4.4,14.2a14.1,14.1,0,0,0,10.8,4.9,13.9,13.9,0,0,0,10.7-4.9c2.9-3.3,4.4-8,4.4-14.3s-1.5-10.7-4.4-14a13.9,13.9,0,0,0-10.7-4.9,14.1,14.1,0,0,0-10.8,4.9C784.6,514.7,783.1,519.4,783.1,525.5Z" transform="translate(-108 -144)"/><path class="cls-1" d="M841.6,560.6l18.7,2.3c.3,2.2,1,3.7,2.2,4.5s4,1.7,7.3,1.7,7.5-.6,9.7-1.9a7.5,7.5,0,0,0,3.2-4.1,25.3,25.3,0,0,0,.8-7.6v-9c-4.9,6.7-11.1,10-18.6,10S850,553,845.1,546s-5.7-12.5-5.7-20.8c0-10.4,2.5-18.3,7.5-23.8a24.1,24.1,0,0,1,18.7-8.2c7.6,0,13.9,3.3,18.9,10.1v-8.7h15.4v55.6c0,7.3-.6,12.7-1.8,16.4a20.3,20.3,0,0,1-5.1,8.5,22.7,22.7,0,0,1-8.7,4.8,45.3,45.3,0,0,1-13.8,1.8c-10.5,0-18-1.8-22.4-5.4a17,17,0,0,1-6.6-13.7A15.6,15.6,0,0,1,841.6,560.6Zm14.6-36.3c0,6.5,1.3,11.3,3.8,14.4a11.8,11.8,0,0,0,9.5,4.6,12.9,12.9,0,0,0,10.1-4.7c2.8-3.1,4.2-7.8,4.2-13.9s-1.4-11.2-4-14.3a12.6,12.6,0,0,0-10-4.7,12.1,12.1,0,0,0-9.8,4.6C857.5,513.3,856.2,518,856.2,524.3Z" transform="translate(-108 -144)"/><path class="cls-1" d="M931.8,556.5H915.4V494.6h15.2v8.8c2.6-4.2,5-6.9,7.1-8.3a12.8,12.8,0,0,1,7.1-1.9,20.9,20.9,0,0,1,10.7,3l-5,14.3a15.3,15.3,0,0,0-7.7-2.6,9.1,9.1,0,0,0-5.9,1.9c-1.6,1.2-2.8,3.5-3.7,6.8s-1.4,10.2-1.4,20.8Z" transform="translate(-108 -144)"/><path class="cls-1" d="M974.9,513.5,960,510.8c1.7-6,4.5-10.4,8.6-13.3s10.2-4.3,18.2-4.3,12.8.8,16.4,2.6,6.1,3.9,7.5,6.5,2.2,7.6,2.2,14.7l-.2,19.2a68.4,68.4,0,0,0,.8,12,31,31,0,0,0,3,8.3h-16.3q-.6-1.7-1.5-4.8l-.6-1.9a30.5,30.5,0,0,1-9,6.1,26.9,26.9,0,0,1-10.2,2c-6.4,0-11.4-1.7-15.1-5.2a17,17,0,0,1-5.5-13.1,17.6,17.6,0,0,1,2.5-9.4,17.1,17.1,0,0,1,7-6.3,58.7,58.7,0,0,1,13.1-3.8c7.6-1.4,12.9-2.8,15.9-4v-1.6c0-3.2-.8-5.4-2.3-6.8s-4.5-2-8.8-2a9.7,9.7,0,0,0-10.8,7.8Zm21.9,13.3c-2.1.7-5.4,1.5-10,2.5s-7.5,1.9-8.9,2.8a7.1,7.1,0,0,0-3.2,5.8,7.9,7.9,0,0,0,2.6,6,9.1,9.1,0,0,0,6.5,2.5,14.8,14.8,0,0,0,8.5-2.9,11.2,11.2,0,0,0,3.9-5.5,34.2,34.2,0,0,0,.6-8Z" transform="translate(-108 -144)"/><path class="cls-1" d="M1028.6,494.6h15.3v9.1a21.9,21.9,0,0,1,8.1-7.6,21.3,21.3,0,0,1,11.2-2.9,23.6,23.6,0,0,1,18.3,8.4c5.1,5.7,7.6,13.5,7.6,23.6s-2.6,18.4-7.6,24.1-11.2,8.6-18.4,8.6a21.8,21.8,0,0,1-9.3-2,32.4,32.4,0,0,1-8.8-7v31.2h-16.4Zm16.2,29.9c0,7,1.4,12.1,4.2,15.4a12.4,12.4,0,0,0,10.1,5,11.7,11.7,0,0,0,9.5-4.6c2.5-3,3.8-8,3.8-15s-1.3-11.3-3.9-14.5a12.3,12.3,0,0,0-9.7-4.7,12.6,12.6,0,0,0-10,4.7C1046.2,513.8,1044.8,518.4,1044.8,524.5Z" transform="translate(-108 -144)"/><path class="cls-1" d="M1118.4,471v31.4c5.3-6.2,11.6-9.2,19-9.2a23.8,23.8,0,0,1,10.2,2.1,17.2,17.2,0,0,1,6.9,5.3,20.7,20.7,0,0,1,3.1,7.3c.6,2.6.8,6.7.8,12.3v36.3h-16.3V523.8c0-6.5-.4-10.6-1-12.4a8.4,8.4,0,0,0-3.3-4.2,10.8,10.8,0,0,0-5.9-1.5,13.8,13.8,0,0,0-7.3,2,11.5,11.5,0,0,0-4.7,6c-1,2.6-1.5,6.6-1.5,11.8v31H1102V471Z" transform="translate(-108 -144)"/><path class="cls-1" d="M1167.3,494.6h17.5l14.8,44,14.5-44H1231l-21.8,59.6-4,10.8a42.5,42.5,0,0,1-4.1,8.3,17.9,17.9,0,0,1-4.5,4.6,18.7,18.7,0,0,1-6.2,2.8,31.2,31.2,0,0,1-8.4,1,42,42,0,0,1-9.3-1l-1.4-12.8a36.6,36.6,0,0,0,6.9.7c3.8,0,6.7-1.1,8.5-3.3a24.7,24.7,0,0,0,4.2-8.6Z" transform="translate(-108 -144)"/></svg>